<mxfile host="app.diagrams.net" modified="2023-09-06T23:56:07.031Z" agent="Mozilla/5.0 (X11; Linux x86_64; rv:109.0) Gecko/20100101 Firefox/115.0" etag="gB4VBrdmkvIXj-eL427d" version="21.7.2" type="device">
  <diagram name="Page-1" id="-WDS3N2YXrtgN7FR9Ja-">
    <mxGraphModel dx="1363" dy="860" grid="1" gridSize="10" guides="1" tooltips="1" connect="1" arrows="1" fold="1" page="1" pageScale="1" pageWidth="850" pageHeight="1100" math="0" shadow="0">
      <root>
        <mxCell id="0" />
        <mxCell id="1" parent="0" />
        <mxCell id="TMtcDuhFHlZRaRCBiAjq-1" value="&lt;div&gt;FIM&lt;/div&gt;" style="strokeWidth=2;html=1;shape=mxgraph.flowchart.terminator;whiteSpace=wrap;" vertex="1" parent="1">
          <mxGeometry x="670" y="660" width="100" height="60" as="geometry" />
        </mxCell>
        <mxCell id="TMtcDuhFHlZRaRCBiAjq-4" value="" style="edgeStyle=orthogonalEdgeStyle;rounded=0;orthogonalLoop=1;jettySize=auto;html=1;" edge="1" parent="1" source="TMtcDuhFHlZRaRCBiAjq-2" target="TMtcDuhFHlZRaRCBiAjq-3">
          <mxGeometry relative="1" as="geometry" />
        </mxCell>
        <mxCell id="TMtcDuhFHlZRaRCBiAjq-2" value="INICIO" style="strokeWidth=2;html=1;shape=mxgraph.flowchart.terminator;whiteSpace=wrap;" vertex="1" parent="1">
          <mxGeometry x="45" y="380" width="100" height="60" as="geometry" />
        </mxCell>
        <mxCell id="TMtcDuhFHlZRaRCBiAjq-7" style="edgeStyle=orthogonalEdgeStyle;rounded=0;orthogonalLoop=1;jettySize=auto;html=1;entryX=0;entryY=0.375;entryDx=0;entryDy=0;entryPerimeter=0;" edge="1" parent="1" source="TMtcDuhFHlZRaRCBiAjq-3" target="TMtcDuhFHlZRaRCBiAjq-6">
          <mxGeometry relative="1" as="geometry" />
        </mxCell>
        <mxCell id="TMtcDuhFHlZRaRCBiAjq-3" value="DECLARE peso, peso_gordo e peso_magro" style="rounded=0;whiteSpace=wrap;html=1;" vertex="1" parent="1">
          <mxGeometry x="35" y="480" width="120" height="60" as="geometry" />
        </mxCell>
        <mxCell id="TMtcDuhFHlZRaRCBiAjq-9" value="" style="edgeStyle=orthogonalEdgeStyle;rounded=0;orthogonalLoop=1;jettySize=auto;html=1;" edge="1" parent="1" source="TMtcDuhFHlZRaRCBiAjq-6" target="TMtcDuhFHlZRaRCBiAjq-8">
          <mxGeometry relative="1" as="geometry" />
        </mxCell>
        <mxCell id="TMtcDuhFHlZRaRCBiAjq-6" value="&quot;Informe o peso&quot;" style="shape=document;whiteSpace=wrap;html=1;boundedLbl=1;size=0.125;" vertex="1" parent="1">
          <mxGeometry x="215" y="380" width="120" height="80" as="geometry" />
        </mxCell>
        <mxCell id="TMtcDuhFHlZRaRCBiAjq-12" value="" style="edgeStyle=orthogonalEdgeStyle;rounded=0;orthogonalLoop=1;jettySize=auto;html=1;" edge="1" parent="1" source="TMtcDuhFHlZRaRCBiAjq-8" target="TMtcDuhFHlZRaRCBiAjq-10">
          <mxGeometry relative="1" as="geometry" />
        </mxCell>
        <mxCell id="TMtcDuhFHlZRaRCBiAjq-13" style="edgeStyle=orthogonalEdgeStyle;rounded=0;orthogonalLoop=1;jettySize=auto;html=1;entryX=0;entryY=0.5;entryDx=0;entryDy=0;" edge="1" parent="1" source="TMtcDuhFHlZRaRCBiAjq-8" target="TMtcDuhFHlZRaRCBiAjq-11">
          <mxGeometry relative="1" as="geometry" />
        </mxCell>
        <mxCell id="TMtcDuhFHlZRaRCBiAjq-8" value="LEIA peso" style="shape=parallelogram;perimeter=parallelogramPerimeter;whiteSpace=wrap;html=1;fixedSize=1;" vertex="1" parent="1">
          <mxGeometry x="215" y="490" width="120" height="60" as="geometry" />
        </mxCell>
        <mxCell id="TMtcDuhFHlZRaRCBiAjq-16" style="edgeStyle=orthogonalEdgeStyle;rounded=0;orthogonalLoop=1;jettySize=auto;html=1;" edge="1" parent="1" source="TMtcDuhFHlZRaRCBiAjq-10" target="TMtcDuhFHlZRaRCBiAjq-14">
          <mxGeometry relative="1" as="geometry" />
        </mxCell>
        <mxCell id="TMtcDuhFHlZRaRCBiAjq-10" value="peso_gordo = peso * (1 * 0,15)" style="rounded=0;whiteSpace=wrap;html=1;" vertex="1" parent="1">
          <mxGeometry x="385" y="490" width="150" height="60" as="geometry" />
        </mxCell>
        <mxCell id="TMtcDuhFHlZRaRCBiAjq-15" style="edgeStyle=orthogonalEdgeStyle;rounded=0;orthogonalLoop=1;jettySize=auto;html=1;entryX=0;entryY=0.5;entryDx=0;entryDy=0;" edge="1" parent="1" source="TMtcDuhFHlZRaRCBiAjq-11" target="TMtcDuhFHlZRaRCBiAjq-14">
          <mxGeometry relative="1" as="geometry" />
        </mxCell>
        <mxCell id="TMtcDuhFHlZRaRCBiAjq-11" value="peso_magro = peso * (1 - 0,20)" style="rounded=0;whiteSpace=wrap;html=1;" vertex="1" parent="1">
          <mxGeometry x="385" y="580" width="150" height="60" as="geometry" />
        </mxCell>
        <mxCell id="TMtcDuhFHlZRaRCBiAjq-17" value="" style="edgeStyle=orthogonalEdgeStyle;rounded=0;orthogonalLoop=1;jettySize=auto;html=1;" edge="1" parent="1" source="TMtcDuhFHlZRaRCBiAjq-14" target="TMtcDuhFHlZRaRCBiAjq-1">
          <mxGeometry relative="1" as="geometry" />
        </mxCell>
        <mxCell id="TMtcDuhFHlZRaRCBiAjq-14" value="&quot;O Seu peso será {peso_gordo} se engordar 15%, porém será {peso_magro} se emagrecer 20%" style="shape=document;whiteSpace=wrap;html=1;boundedLbl=1;size=0.14285714285714285;" vertex="1" parent="1">
          <mxGeometry x="625" y="490" width="190" height="140" as="geometry" />
        </mxCell>
      </root>
    </mxGraphModel>
  </diagram>
</mxfile>
